<?xml version="1.0" encoding="utf-8"?>
<!-- Generator: Adobe Illustrator 26.0.1, SVG Export Plug-In . SVG Version: 6.00 Build 0)  -->
<svg version="1.1" id="Layer_1" xmlns="http://www.w3.org/2000/svg" xmlns:xlink="http://www.w3.org/1999/xlink" x="0px" y="0px"
	 viewBox="0 0 1027 361" style="enable-background:new 0 0 1027 361;" xml:space="preserve">
<style type="text/css">
	.st0{fill:#FFFFC2;}
	.st1{fill:#F9EDD3;}
	.st2{fill:#E39523;}
	.st3{fill:#FBA919;}
	.st4{fill:none;}
	.st5{fill:none;stroke:#231F20;stroke-miterlimit:10;}
	.st6{fill:#FEBE40;}
	.st7{fill:#FFD075;}
	.st8{fill:#FFFFFF;}
	.st9{fill:#445A3A;}
	.st10{fill:#E6A736;}
	.st11{fill:#527938;}
	.st12{fill:#72A754;}
	.st13{opacity:0.5;fill:#352E1A;}
	.st14{opacity:0.3;fill:#E0EFDE;}
	.st15{fill:#699646;}
	.st16{fill:#F2CF7D;}
	.st17{opacity:0.25;fill:#885823;}
	.st18{fill:none;stroke:#253E6A;stroke-width:2;stroke-miterlimit:10;}
</style>
<g>
	<g>
		<path class="st0" d="M156.5,330.9c0,0,49.5-0.3,70.2-1.1c20.7-0.8,111.6-24.9,136.9-25c25.4,0,61.2,18.1,76.4,21.6
			c15.2,3.5,47-9.5,69.4-9.2c22.4,0.3,31.6-3.7,31.6-3.7s-58.4,1.2-91.8,9.3c-8.8,2.1-71.1-22.7-78.9-24.2c-7.8-1.5-11,0.1-20.4,2.1
			c-9.4,2-53.5,8.6-70.2,11.2c-16.7,2.6-42.7,9-56.2,9c-13.5,0-64.8-1.3-64.8-1.3L156.5,330.9z"/>
		<path class="st0" d="M367,300.8c0,0,0.8,1.1,12-2.1c11.2-3.2,21.9-5.1,37.6-11c15.7-5.9,40.1-5.9,42.7-7.1c0,0-29.7,0.4-34.1,1.3
			c-4.4,0.9-13.3,4.9-19.7,5.9c-6.4,1-19.1,4.1-24.9,5c-5.8,0.9-22.8,6.3-22.8,6.3L367,300.8z"/>
		<polygon class="st0" points="114.7,277.9 156.5,330.9 158.9,319.6 117.4,263.9 		"/>
	</g>
	<g>
		<path class="st1" d="M482.8,311.9c-3,2.5-2.4,9.3,1,12.9c2.1,2.3,8.2-0.8,12.2-4c-3.1,3.4-6.1,8.3-5.3,10.7
			c1.2,3.8,7.7,5.6,12.4,3.9c2.9-1.1,2.3-7.7,0.8-12.6c2.2,4.6,5.9,9.7,8.7,8.7c4.7-1.7,8.4-7.3,6.9-11c-1.2-2.9-8.9-4.9-13.7-4.9
			c5.2-0.6,13.8-3.6,13.3-7.1c-0.6-4.9-5.4-9.8-9.2-9.1c-2.8,0.5-6.1,6.5-7.4,11.1c0.8-4.6,0.7-11.1-1.5-12.9
			c-3.1-2.4-9.6-0.3-12.4,3.8c-2.1,3,4.4,9.8,8.7,12.7C493.2,311.8,485.2,309.9,482.8,311.9z"/>
		<path class="st2" d="M498,316.6c0.3-1.8,2-3.1,3.8-2.8c1.8,0.3,3.1,2,2.8,3.8c-0.3,1.8-2,3.1-3.8,2.8
			C498.9,320.1,497.7,318.4,498,316.6z"/>
		<g>
			<path class="st2" d="M501.8,325.8c0,0,1.3-4.4,0.4-7.5"/>
			<path class="st2" d="M500.7,326.2c0-0.6,0.5-1.2,1.2-1.2c0.6,0,1.2,0.5,1.2,1.2c0,0.6-0.5,1.2-1.2,1.2
				C501.2,327.4,500.7,326.9,500.7,326.2z"/>
		</g>
		<g>
			<path class="st2" d="M496.5,323.7c0,0,3.3-3.2,4-6.3"/>
			<path class="st2" d="M495.2,323.5c0.3-0.6,1-0.8,1.6-0.5c0.6,0.3,0.8,1,0.5,1.6s-1,0.8-1.6,0.5
				C495.1,324.8,494.9,324.1,495.2,323.5z"/>
		</g>
		<g>
			<path class="st2" d="M510,319.2c0,0-3.9-2.4-7.1-2.3"/>
			<path class="st2" d="M510.2,320.5c-0.6-0.2-1-0.8-0.9-1.4c0.2-0.6,0.8-1,1.4-0.9c0.6,0.2,1,0.8,0.9,1.4
				C511.4,320.3,510.8,320.7,510.2,320.5z"/>
		</g>
		<g>
			<path class="st2" d="M507.7,323.5c0,0-2.3-4-5.1-5.5"/>
			<path class="st2" d="M507.2,324.7c-0.5-0.4-0.5-1.2,0-1.7c0.4-0.5,1.2-0.5,1.7,0c0.5,0.4,0.5,1.2,0,1.7
				C508.4,325.1,507.6,325.1,507.2,324.7z"/>
		</g>
		<g>
			<path class="st2" d="M493.2,319.3c0,0,4.6-0.3,7.2-2.1"/>
			<path class="st2" d="M492.4,318.3c0.6-0.2,1.3,0.1,1.5,0.7c0.2,0.6-0.1,1.3-0.7,1.5c-0.6,0.2-1.3-0.1-1.5-0.7
				C491.5,319.2,491.8,318.5,492.4,318.3z"/>
		</g>
		<g>
			<path class="st2" d="M495.8,310.3c0,0,2.3,4,5.2,5.4"/>
			<path class="st2" d="M496.3,309.1c0.5,0.4,0.5,1.2,0.1,1.7c-0.4,0.5-1.2,0.5-1.7,0.1s-0.5-1.2-0.1-1.7S495.9,308.7,496.3,309.1z"
				/>
		</g>
		<g>
			<path class="st2" d="M500.6,309.2c0,0-0.5,4.6,1,7.4"/>
			<path class="st2" d="M501.7,308.5c0.1,0.6-0.3,1.3-0.9,1.4c-0.6,0.1-1.3-0.3-1.4-0.9c-0.1-0.6,0.3-1.3,0.9-1.4
				C501,307.5,501.6,307.9,501.7,308.5z"/>
		</g>
		<g>
			<path class="st2" d="M505.8,309.2c0,0-3.1,3.4-3.6,6.5"/>
			<path class="st2" d="M507.1,309.4c-0.3,0.6-1,0.8-1.6,0.6c-0.6-0.3-0.8-1-0.6-1.6c0.3-0.6,1-0.8,1.6-0.6
				C507.1,308.1,507.4,308.8,507.1,309.4z"/>
		</g>
		<g>
			<path class="st2" d="M508.3,313.5c0,0-4.5,0.9-6.8,3.1"/>
			<path class="st2" d="M509.3,314.3c-0.6,0.3-1.3,0.1-1.6-0.5c-0.3-0.6-0.1-1.3,0.5-1.6c0.6-0.3,1.3-0.1,1.6,0.5
				C510,313.3,509.8,314,509.3,314.3z"/>
		</g>
		<g>
			<path class="st2" d="M494.2,315c0,0,3.7,2.8,6.9,3"/>
			<path class="st2" d="M494.3,313.8c0.6,0.2,0.9,0.9,0.7,1.5c-0.2,0.6-0.9,0.9-1.5,0.7c-0.6-0.2-0.9-0.9-0.7-1.5
				C493,313.9,493.6,313.5,494.3,313.8z"/>
		</g>
	</g>
	<g>
		<path class="st1" d="M411.8,288.4c-1.4,3.7,2.6,9.2,7.3,10.7c3,0.9,6.7-4.8,8.6-9.6c-1,4.5-1.2,10.2,0.8,11.9
			c2.9,2.6,9.5,1,12.7-2.8c1.9-2.4-1.9-7.8-5.6-11.4c4.2,2.9,9.9,5.5,11.9,3.2c3.2-3.8,3.6-10.5,0.5-12.9
			c-2.5-1.9-10.2,0.2-14.3,2.5c4.2-3.1,10.2-9.9,8-12.8c-3-4-9.5-5.8-12.5-3.3c-2.2,1.8-2,8.7-0.9,13.3c-1.6-4.4-4.9-10-7.7-10.4
			c-3.9-0.6-8.5,4.5-8.9,9.4c-0.3,3.7,8.7,6.3,13.9,6.7C420.8,283.1,412.9,285.4,411.8,288.4z"/>
		<path class="st2" d="M427.3,284.9c-0.6-1.7,0.2-3.7,1.9-4.3c1.7-0.6,3.7,0.2,4.3,2c0.6,1.7-0.2,3.7-1.9,4.3
			S427.9,286.6,427.3,284.9z"/>
		<g>
			<path class="st2" d="M435.3,290.9c0,0-1.1-4.5-3.4-6.7"/>
			<path class="st2" d="M434.4,291.9c-0.3-0.6-0.1-1.3,0.4-1.6c0.6-0.3,1.3-0.1,1.6,0.4c0.3,0.6,0.1,1.3-0.4,1.6
				C435.5,292.7,434.8,292.5,434.4,291.9z"/>
		</g>
		<g>
			<path class="st2" d="M429.6,291.8c0,0,1.2-4.4,0.3-7.5"/>
			<path class="st2" d="M428.4,292.3c0-0.6,0.5-1.2,1.1-1.2c0.6,0,1.2,0.5,1.2,1.1c0,0.6-0.5,1.2-1.1,1.2
				C429,293.4,428.4,292.9,428.4,292.3z"/>
		</g>
		<g>
			<path class="st2" d="M439.1,281.2c0,0-4.6-0.1-7.3,1.6"/>
			<path class="st2" d="M439.8,282.2c-0.6,0.2-1.3-0.2-1.4-0.8c-0.2-0.6,0.2-1.3,0.8-1.4c0.6-0.2,1.3,0.2,1.4,0.8
				C440.8,281.4,440.4,282,439.8,282.2z"/>
		</g>
		<g>
			<path class="st2" d="M439.2,286.1c0,0-4-2.4-7.1-2.2"/>
			<path class="st2" d="M439.3,287.3c-0.6-0.2-1-0.8-0.9-1.4c0.2-0.6,0.8-1,1.4-0.9c0.6,0.2,1,0.8,0.9,1.4S439.9,287.5,439.3,287.3z
				"/>
		</g>
		<g>
			<path class="st2" d="M424.5,289.6c0,0,3.9-2.5,5.2-5.4"/>
			<path class="st2" d="M423.4,289.1c0.4-0.5,1.2-0.6,1.6-0.2c0.5,0.4,0.6,1.2,0.2,1.6c-0.4,0.5-1.2,0.6-1.6,0.2
				C423,290.4,422.9,289.6,423.4,289.1z"/>
		</g>
		<g>
			<path class="st2" d="M422.3,280.5c0,0,4,2.3,7.2,2.1"/>
			<path class="st2" d="M422.2,279.2c0.6,0.1,1,0.8,0.9,1.4c-0.1,0.6-0.8,1-1.4,0.9c-0.6-0.1-1-0.8-0.9-1.4
				C420.9,279.5,421.6,279.1,422.2,279.2z"/>
		</g>
		<g>
			<path class="st2" d="M425.9,277.2c0,0,1.9,4.2,4.6,5.9"/>
			<path class="st2" d="M426.5,276c0.4,0.5,0.4,1.2-0.1,1.7c-0.5,0.4-1.2,0.4-1.7-0.1c-0.4-0.5-0.4-1.2,0.1-1.7
				C425.4,275.5,426.1,275.6,426.5,276z"/>
		</g>
		<g>
			<path class="st2" d="M430.5,274.6c0,0-1,4.5,0.1,7.5"/>
			<path class="st2" d="M431.6,274.1c0.1,0.6-0.4,1.2-1.1,1.3c-0.6,0.1-1.2-0.4-1.3-1.1c-0.1-0.6,0.4-1.2,1.1-1.3
				C431,273,431.6,273.4,431.6,274.1z"/>
		</g>
		<g>
			<path class="st2" d="M434.7,277c0,0-3.5,3-4.3,6.1"/>
			<path class="st2" d="M436,277.3c-0.3,0.5-1.1,0.7-1.6,0.4c-0.5-0.3-0.7-1.1-0.4-1.6c0.3-0.5,1.1-0.7,1.6-0.4
				C436.1,276,436.3,276.7,436,277.3z"/>
		</g>
		<g>
			<path class="st2" d="M423.3,285.4c0,0,4.6,0.6,7.4-0.8"/>
			<path class="st2" d="M422.7,284.3c0.6-0.1,1.2,0.3,1.4,1c0.1,0.6-0.3,1.2-1,1.4c-0.6,0.1-1.2-0.3-1.4-1
				C421.6,285,422,284.4,422.7,284.3z"/>
		</g>
	</g>
	<g>
		<path class="st1" d="M256.8,321.1c-1.4,3.7,2.6,9.2,7.3,10.7c3,0.9,6.7-4.8,8.6-9.6c-1,4.5-1.2,10.2,0.8,11.9
			c2.9,2.6,9.5,1,12.7-2.8c1.9-2.4-1.9-7.8-5.6-11.4c4.2,2.9,9.9,5.5,11.9,3.2c3.2-3.8,3.6-10.5,0.5-12.9
			c-2.5-1.9-10.2,0.2-14.3,2.5c4.2-3.1,10.2-9.9,8-12.8c-3-4-9.5-5.8-12.5-3.3c-2.2,1.8-2,8.7-0.9,13.3c-1.6-4.4-4.9-10-7.7-10.4
			c-3.9-0.6-8.5,4.5-8.9,9.4c-0.3,3.7,8.7,6.3,13.9,6.7C265.8,315.8,257.9,318.1,256.8,321.1z"/>
		<path class="st2" d="M272.3,317.6c-0.6-1.7,0.2-3.7,1.9-4.3c1.7-0.6,3.7,0.2,4.3,1.9c0.6,1.7-0.2,3.7-2,4.3
			S272.9,319.3,272.3,317.6z"/>
		<g>
			<path class="st2" d="M280.3,323.6c0,0-1.1-4.5-3.4-6.7"/>
			<path class="st2" d="M279.5,324.6c-0.3-0.6-0.1-1.3,0.4-1.6c0.6-0.3,1.3-0.1,1.6,0.4c0.3,0.6,0.1,1.3-0.4,1.6
				C280.5,325.4,279.8,325.2,279.5,324.6z"/>
		</g>
		<g>
			<path class="st2" d="M274.6,324.5c0,0,1.2-4.4,0.3-7.5"/>
			<path class="st2" d="M273.4,325c0-0.6,0.5-1.2,1.1-1.2c0.6,0,1.2,0.5,1.2,1.1c0,0.6-0.5,1.2-1.1,1.2
				C274,326.1,273.4,325.6,273.4,325z"/>
		</g>
		<g>
			<path class="st2" d="M284.1,313.9c0,0-4.6-0.1-7.3,1.6"/>
			<path class="st2" d="M284.8,314.9c-0.6,0.2-1.3-0.2-1.4-0.8c-0.2-0.6,0.2-1.3,0.8-1.4c0.6-0.2,1.3,0.2,1.4,0.8
				C285.8,314.1,285.5,314.7,284.8,314.9z"/>
		</g>
		<g>
			<path class="st2" d="M284.2,318.8c0,0-4-2.4-7.1-2.2"/>
			<path class="st2" d="M284.3,320c-0.6-0.2-1-0.8-0.9-1.4c0.2-0.6,0.8-1,1.4-0.9c0.6,0.2,1,0.8,0.9,1.4
				C285.6,319.8,285,320.2,284.3,320z"/>
		</g>
		<g>
			<path class="st2" d="M269.6,322.3c0,0,3.9-2.5,5.1-5.4"/>
			<path class="st2" d="M268.4,321.8c0.4-0.5,1.2-0.6,1.6-0.1c0.5,0.4,0.6,1.2,0.2,1.6c-0.4,0.5-1.2,0.6-1.6,0.1
				C268,323,267.9,322.3,268.4,321.8z"/>
		</g>
		<g>
			<path class="st2" d="M267.4,313.2c0,0,4,2.3,7.2,2.1"/>
			<path class="st2" d="M267.2,311.9c0.6,0.1,1,0.8,0.9,1.4c-0.1,0.6-0.8,1-1.4,0.9c-0.6-0.1-1-0.8-0.9-1.4
				C265.9,312.2,266.6,311.8,267.2,311.9z"/>
		</g>
		<g>
			<path class="st2" d="M270.9,309.8c0,0,1.9,4.2,4.6,5.9"/>
			<path class="st2" d="M271.5,308.7c0.4,0.5,0.4,1.2-0.1,1.7c-0.5,0.4-1.2,0.4-1.7-0.1c-0.4-0.5-0.4-1.2,0.1-1.7
				C270.4,308.2,271.1,308.3,271.5,308.7z"/>
		</g>
		<g>
			<path class="st2" d="M275.5,307.3c0,0-1,4.5,0.1,7.5"/>
			<path class="st2" d="M276.6,306.8c0.1,0.6-0.4,1.2-1.1,1.3c-0.6,0.1-1.2-0.4-1.3-1.1c-0.1-0.6,0.4-1.2,1.1-1.3
				C276,305.6,276.6,306.1,276.6,306.8z"/>
		</g>
		<g>
			<path class="st2" d="M279.7,309.7c0,0-3.5,3-4.3,6.1"/>
			<path class="st2" d="M281,310c-0.3,0.5-1.1,0.7-1.6,0.4c-0.5-0.3-0.7-1.1-0.4-1.6c0.3-0.5,1.1-0.7,1.6-0.4
				C281.1,308.7,281.3,309.4,281,310z"/>
		</g>
		<g>
			<path class="st2" d="M268.3,318.1c0,0,4.6,0.6,7.4-0.8"/>
			<path class="st2" d="M267.7,317c0.6-0.1,1.2,0.3,1.4,1c0.1,0.6-0.3,1.2-1,1.4c-0.6,0.1-1.2-0.3-1.4-1
				C266.6,317.7,267.1,317.1,267.7,317z"/>
		</g>
	</g>
	<g>
		<path class="st1" d="M353.5,304c-1.4,3.7,2.6,9.2,7.3,10.7c3,0.9,6.7-4.8,8.6-9.6c-1,4.5-1.2,10.2,0.8,11.9
			c2.9,2.6,9.5,1,12.7-2.8c1.9-2.4-1.9-7.8-5.6-11.4c4.2,2.9,9.9,5.5,11.9,3.2c3.2-3.8,3.6-10.5,0.5-12.9
			c-2.5-1.9-10.2,0.2-14.3,2.5c4.2-3.1,10.2-9.9,8-12.8c-3-4-9.5-5.8-12.5-3.3c-2.2,1.8-2,8.7-0.9,13.3c-1.6-4.4-4.9-10-7.7-10.4
			c-3.9-0.6-8.5,4.5-8.9,9.4c-0.3,3.7,8.7,6.3,13.9,6.7C362.4,298.8,354.6,301,353.5,304z"/>
		<path class="st2" d="M369,300.5c-0.6-1.7,0.2-3.7,1.9-4.3c1.7-0.6,3.7,0.2,4.3,1.9c0.6,1.7-0.2,3.7-1.9,4.3
			C371.5,303.1,369.6,302.2,369,300.5z"/>
		<g>
			<path class="st2" d="M376.9,306.6c0,0-1.1-4.5-3.4-6.7"/>
			<path class="st2" d="M376.1,307.6c-0.3-0.6-0.1-1.3,0.4-1.6c0.6-0.3,1.3-0.1,1.6,0.4c0.3,0.6,0.1,1.3-0.4,1.6
				C377.2,308.3,376.4,308.1,376.1,307.6z"/>
		</g>
		<g>
			<path class="st2" d="M371.3,307.4c0,0,1.2-4.4,0.3-7.5"/>
			<path class="st2" d="M370.1,307.9c0-0.6,0.5-1.2,1.1-1.2c0.6,0,1.2,0.5,1.2,1.1c0,0.6-0.5,1.2-1.1,1.2
				C370.6,309.1,370.1,308.5,370.1,307.9z"/>
		</g>
		<g>
			<path class="st2" d="M380.8,296.8c0,0-4.6-0.1-7.3,1.6"/>
			<path class="st2" d="M381.5,297.8c-0.6,0.2-1.3-0.2-1.4-0.8c-0.2-0.6,0.2-1.3,0.8-1.4c0.6-0.2,1.3,0.2,1.4,0.8
				C382.5,297,382.1,297.7,381.5,297.8z"/>
		</g>
		<g>
			<path class="st2" d="M380.9,301.7c0,0-4-2.4-7.1-2.2"/>
			<path class="st2" d="M381,303c-0.6-0.2-1-0.8-0.9-1.4c0.2-0.6,0.8-1,1.4-0.9c0.6,0.2,1,0.8,0.9,1.4
				C382.2,302.7,381.6,303.1,381,303z"/>
		</g>
		<g>
			<path class="st2" d="M366.2,305.2c0,0,3.9-2.5,5.1-5.4"/>
			<path class="st2" d="M365,304.7c0.4-0.5,1.2-0.6,1.6-0.2c0.5,0.4,0.6,1.2,0.2,1.6c-0.4,0.5-1.2,0.6-1.6,0.2
				C364.7,306,364.6,305.2,365,304.7z"/>
		</g>
		<g>
			<path class="st2" d="M364,296.1c0,0,4,2.3,7.2,2.1"/>
			<path class="st2" d="M363.9,294.9c0.6,0.1,1,0.8,0.9,1.4c-0.1,0.6-0.8,1-1.4,0.9c-0.6-0.1-1-0.8-0.9-1.4
				C362.6,295.1,363.2,294.7,363.9,294.9z"/>
		</g>
		<g>
			<path class="st2" d="M367.6,292.8c0,0,1.9,4.2,4.6,5.9"/>
			<path class="st2" d="M368.2,291.7c0.4,0.5,0.4,1.2-0.1,1.7c-0.5,0.4-1.2,0.4-1.7-0.1c-0.4-0.5-0.4-1.2,0.1-1.7
				C367,291.1,367.8,291.2,368.2,291.7z"/>
		</g>
		<g>
			<path class="st2" d="M372.1,290.2c0,0-1,4.5,0.1,7.5"/>
			<path class="st2" d="M373.3,289.7c0.1,0.6-0.4,1.2-1.1,1.3c-0.6,0.1-1.2-0.4-1.3-1.1c-0.1-0.6,0.4-1.2,1.1-1.3
				C372.7,288.6,373.3,289.1,373.3,289.7z"/>
		</g>
		<g>
			<path class="st2" d="M376.4,292.7c0,0-3.5,3-4.3,6.1"/>
			<path class="st2" d="M377.6,292.9c-0.3,0.5-1.1,0.7-1.6,0.4c-0.5-0.3-0.7-1.1-0.4-1.6c0.3-0.5,1.1-0.7,1.6-0.4
				C377.8,291.7,378,292.4,377.6,292.9z"/>
		</g>
		<g>
			<path class="st2" d="M365,301c0,0,4.6,0.6,7.4-0.8"/>
			<path class="st2" d="M364.4,299.9c0.6-0.1,1.2,0.3,1.4,1c0.1,0.6-0.3,1.2-1,1.4c-0.6,0.1-1.2-0.3-1.4-1
				C363.3,300.6,363.7,300,364.4,299.9z"/>
		</g>
	</g>
</g>
<g>
	<g>
		<g>
			<path class="st3" d="M230.1,176.2c0,13.3-2.3,26.1-6.4,38c-7.1,20.4-19.8,38.1-36.3,51.4c-19.8,16-44.9,25.6-72.4,25.6H38.3
				c0-9,1.6-17.6,4.4-25.6c10.6-29.7,39-51,72.4-51c21.2,0,38.4-17.2,38.4-38.4c0-1.1,0-2.3-0.1-3.4v-35.1
				c0-22.7,9.9-43.2,25.6-57.2c13.6-12.2,31.5-19.6,51.2-19.6v113.8C230.1,175.2,230.1,175.7,230.1,176.2z"/>
			<path class="st4" d="M76.7,176.2"/>
			<line class="st4" x1="153.3" y1="176.2" x2="153.3" y2="172.8"/>
			<path class="st4" d="M115.1,214.6"/>
			<path class="st5" d="M24.9,247.6"/>
			<path class="st4" d="M115.1,291.3"/>
			<path class="st6" d="M178.9,80.4c-15.7,14.1-25.6,34.5-25.6,57.2v35.1c-1.7-19.6-18.2-35-38.2-35c-20.1,0-36.6,15.4-38.3,35
				c0,0.5-0.1,1.1-0.1,1.7c0,0.5,0,1.1,0,1.7c0,21.2,17.2,38.4,38.4,38.4c-33.4,0-61.8,21.3-72.4,51c-0.8-0.7-1.6-1.3-2.4-2
				c-0.6-0.5-1.1-1-1.7-1.5c-0.8-0.7-1.6-1.4-2.3-2.1c-0.6-0.5-1.3-1.2-1.9-1.8c-0.6-0.5-1.1-1.1-1.7-1.7c-1.9-2-3.8-4.1-5.6-6.2
				c-2.7-3.2-5.2-6.6-7.6-10c-0.5-0.8-1-1.5-1.5-2.3c-0.5-0.8-1-1.6-1.5-2.5c-0.4-0.6-0.8-1.3-1.1-1.9c-1-1.7-2-3.5-2.9-5.3
				c-0.4-0.8-0.8-1.6-1.2-2.4c-0.2-0.4-0.4-0.7-0.5-1.1c-0.4-0.8-0.8-1.6-1.1-2.5c-0.3-0.7-0.7-1.5-1-2.3c-0.7-1.7-1.4-3.5-2-5.2
				c-0.4-1-0.7-2-1-3c-0.3-1-0.7-2-1-3.1s-0.6-2.1-0.9-3.1c-0.2-0.9-0.5-1.8-0.7-2.8c0-0.1-0.1-0.3-0.1-0.4l-0.7-3.2
				c-0.4-2.1-0.8-4.3-1.1-6.4c-0.1-1.1-0.3-2.2-0.4-3.3c-0.1-1.1-0.2-2.2-0.3-3.3c0-0.1,0-0.1,0-0.2c-0.3-3.3-0.4-6.6-0.4-9.9
				c0-39.9,20.3-75.1,51.2-95.7C69.5,68.2,91.4,61,115.1,61C138.7,61,160.7,68.2,178.9,80.4z"/>
			<path class="st7" d="M115.1,214.6c-33.4,0-61.8,21.3-72.4,51c-0.8-0.7-1.6-1.3-2.4-2c-0.6-0.5-1.1-1-1.7-1.5
				c-0.8-0.7-1.6-1.4-2.3-2.1c-0.6-0.5-1.3-1.2-1.9-1.8c-0.6-0.5-1.1-1.1-1.7-1.7c-2-2-3.9-4.1-5.6-6.2c-2.7-3.2-5.2-6.6-7.6-10
				c-0.5-0.8-1-1.5-1.5-2.3c-0.5-0.8-1-1.6-1.5-2.5c-0.4-0.6-0.8-1.3-1.1-1.9c-1-1.7-2-3.5-2.9-5.3c-0.4-0.8-0.8-1.6-1.2-2.4
				c-0.2-0.4-0.4-0.7-0.5-1.1c-0.4-0.8-0.8-1.6-1.1-2.5c-0.3-0.7-0.7-1.5-1-2.3c-0.7-1.7-1.4-3.5-2-5.2c-0.1-0.2-0.1-0.4-0.2-0.6
				c-0.3-0.8-0.6-1.6-0.8-2.5c-0.3-1-0.7-2-1-3.1s-0.6-2.1-0.9-3.1c-0.2-0.9-0.5-1.8-0.7-2.8c0-0.1-0.1-0.3-0.1-0.4l-0.7-3.2
				c-0.4-2.1-0.8-4.3-1.1-6.4c-0.1-1.1-0.3-2.2-0.4-3.3c-0.1-1.1-0.2-2.2-0.3-3.3c0-0.1,0-0.1,0-0.2c-0.3-3.3-0.4-6.6-0.4-9.9
				c0-0.5,0-1,0-1.5V60.9c19.7,0,37.6,7.4,51.2,19.6c15.7,14.1,25.6,34.5,25.6,57.2v35.1c0,0.5-0.1,1.1-0.1,1.7c0,0.5,0,1.1,0,1.7
				C76.7,197.4,93.9,214.6,115.1,214.6z"/>
		</g>
		<g>
			<g>
				<path class="st8" d="M322.9,140.4v11.3h-49.6V72.6h11.9v67.8H322.9z"/>
				<path class="st8" d="M379.4,135.3c-0.9,2.3-2.1,4.5-3.6,6.6c-1.4,2-3.1,3.8-5.2,5.4s-4.3,2.8-7,3.6c-2.6,0.9-5.6,1.3-8.9,1.3
					c-3.8,0-7.3-0.7-10.5-2.1c-3.3-1.4-6.1-3.4-8.6-5.9c-2.5-2.6-4.4-5.6-5.8-9.1s-2.1-7.4-2.1-11.7c0-4.3,0.7-8.1,2.1-11.6
					c1.4-3.5,3.3-6.6,5.6-9.1c2.4-2.6,5.2-4.5,8.4-6c3.2-1.4,6.6-2.1,10.2-2.1s7,0.7,10.2,2.1c3.2,1.4,6,3.4,8.4,6s4.3,5.6,5.6,9.1
					c1.4,3.5,2.1,7.4,2.1,11.6c0,0.7,0,1.3-0.1,1.9c-0.1,0.6-0.2,1.2-0.2,1.6c-0.1,0.6-0.2,1.1-0.2,1.5h-40.2c0.2,1.8,0.7,3.4,1.5,5
					c0.9,1.6,1.9,3,3.2,4.2s2.8,2.2,4.6,2.9c1.8,0.7,3.7,1.1,5.7,1.1c3.4,0,6.2-0.7,8.2-2.2s3.5-2.8,4.4-4H379.4z M354.3,105.2
					c-3.8,0-6.9,1.3-9.5,3.8c-2.6,2.6-4.2,5.9-4.9,10h30.2c-0.7-4.1-2.3-7.4-5-10C362.3,106.5,358.7,105.2,354.3,105.2z"/>
				<path class="st8" d="M482.3,72.6v79.1h-12v-34.5h-36.4v34.5H422V72.6h11.9v33.2h36.4V72.6H482.3z"/>
				<path class="st8" d="M550,123.4c0,4.3-0.7,8.1-2.1,11.7s-3.3,6.6-5.8,9.1c-2.5,2.6-5.3,4.5-8.6,5.9c-3.3,1.4-6.8,2.1-10.5,2.1
					s-7.3-0.7-10.5-2.1c-3.3-1.4-6.1-3.4-8.6-5.9c-2.5-2.6-4.4-5.6-5.8-9.1c-1.4-3.5-2.1-7.4-2.1-11.7c0-4.3,0.7-8.1,2.1-11.6
					c1.4-3.5,3.3-6.6,5.8-9.1c2.5-2.6,5.3-4.5,8.6-6c3.3-1.4,6.8-2.1,10.5-2.1s7.3,0.7,10.5,2.1c3.3,1.4,6.1,3.4,8.6,6
					s4.4,5.6,5.8,9.1C549.3,115.2,550,119.1,550,123.4z M538.7,123.4c0-2.7-0.4-5.2-1.3-7.4c-0.9-2.2-2-4.1-3.5-5.8
					c-1.4-1.6-3.1-2.9-5-3.8c-1.9-0.9-3.9-1.3-5.9-1.3s-4,0.4-5.9,1.3c-1.9,0.9-3.6,2.1-5,3.8c-1.4,1.6-2.6,3.6-3.5,5.8
					c-0.9,2.2-1.3,4.7-1.3,7.3c0,2.7,0.4,5.2,1.3,7.4c0.9,2.2,2,4.1,3.5,5.8c1.4,1.6,3.1,2.9,5,3.8s3.9,1.3,5.9,1.3s4-0.4,5.9-1.3
					s3.6-2.1,5-3.8c1.4-1.6,2.6-3.6,3.5-5.8C538.3,128.5,538.7,126.1,538.7,123.4z"/>
				<path class="st8" d="M589,94.5c3.1,0,6,0.6,8.8,1.8s5.2,2.9,7.2,5c2,2.1,3.7,4.7,4.8,7.7c1.2,3,1.8,6.3,1.8,10v32.6h-11.3V119
					c0-1.8-0.4-3.6-1.1-5.3s-1.7-3.1-2.9-4.4c-1.2-1.3-2.6-2.3-4.2-3c-1.6-0.8-3.3-1.1-5-1.1c-1.9,0-3.7,0.4-5.4,1.1
					c-1.7,0.8-3.1,1.8-4.4,3c-1.2,1.3-2.2,2.7-2.9,4.4c-0.7,1.7-1.1,3.4-1.1,5.3v32.6H562V95.1h8.2l2.5,5.7c1.1-1.2,2.4-2.2,3.9-3.2
					c1.3-0.7,3-1.4,5.1-2.1C583.7,94.8,586.1,94.5,589,94.5z"/>
				<path class="st8" d="M675.6,95.1v54c0,3.4-0.6,6.6-1.8,9.5c-1.2,2.9-2.9,5.5-5.2,7.6c-2.2,2.1-4.9,3.8-8.1,5
					c-3.2,1.2-6.7,1.7-10.7,1.7c-3.4,0-6.5-0.5-9.3-1.4c-2.8-1-5.2-2.2-7.2-3.8s-3.7-3.5-5.1-5.6s-2.3-4.4-2.9-6.7h11.3
					c0.9,1.9,2.4,3.7,4.5,5.2c2,1.6,4.9,2.3,8.7,2.3c4.5,0,8-1.3,10.6-3.8c2.6-2.6,3.9-5.9,3.9-10v-5.6c-1.1,1.2-2.4,2.2-3.9,3.1
					c-1.3,0.8-3,1.5-4.9,2.2c-1.9,0.6-4.2,1-6.9,1c-3.4,0-6.7-0.7-9.9-2.1c-3.1-1.4-5.9-3.4-8.2-5.8c-2.4-2.5-4.2-5.4-5.6-8.7
					s-2.1-7-2.1-10.9c0-3.9,0.7-7.6,2.1-10.9c1.4-3.4,3.2-6.3,5.6-8.7c2.4-2.5,5.1-4.4,8.2-5.9c3.1-1.4,6.4-2.1,9.9-2.1
					c2.9,0,5.3,0.3,7.4,1s3.7,1.4,5,2.1c1.5,0.9,2.8,2,3.9,3.2l2.5-5.7H675.6z M650,139.1c2,0,3.9-0.4,5.8-1.3
					c1.9-0.9,3.5-2.1,5-3.6c1.4-1.6,2.6-3.4,3.5-5.4c0.9-2,1.3-4.2,1.3-6.6c0-2.3-0.4-4.5-1.3-6.6c-0.9-2.1-2-3.9-3.5-5.4
					c-1.4-1.6-3.1-2.8-5-3.6c-1.9-0.9-3.9-1.3-5.9-1.3s-4,0.4-5.9,1.3c-1.9,0.9-3.6,2.1-5,3.6s-2.6,3.4-3.5,5.4s-1.3,4.3-1.3,6.6
					c0,2.3,0.4,4.5,1.3,6.6c0.9,2,2.1,3.8,3.5,5.4c1.5,1.6,3.1,2.8,5,3.6C645.9,138.6,647.9,139.1,650,139.1z"/>
				<path class="st8" d="M749,72.6c3.4,0,6.7,0.7,9.7,2c3,1.3,5.7,3.1,8,5.4c2.3,2.3,4.1,4.9,5.4,8c1.3,3,2,6.3,2,9.7
					s-0.7,6.7-2,9.7c-1.3,3.1-3.1,5.7-5.4,8c-2.3,2.2-4.9,4-8,5.4c-3,1.3-6.3,2-9.7,2h-17v28.9h-11.9V72.6H749z M749,111.5
					c1.8,0,3.4-0.4,5-1.1c1.6-0.7,3-1.7,4.2-3c1.2-1.3,2.2-2.7,2.9-4.4s1.1-3.5,1.1-5.4c0-1.8-0.4-3.6-1.1-5.3s-1.7-3.1-2.9-4.4
					c-1.2-1.2-2.6-2.2-4.2-3c-1.6-0.8-3.2-1.1-5-1.1h-17v27.7H749z"/>
				<path class="st8" d="M813.6,94.5c3.1,0,6,0.6,8.8,1.8c2.8,1.2,5.2,2.9,7.2,5c2.1,2.1,3.7,4.7,4.8,7.7c1.2,3,1.7,6.3,1.7,10v32.6
					h-11.3V119c0-1.8-0.4-3.6-1.1-5.3s-1.7-3.1-2.9-4.4s-2.6-2.3-4.2-3c-1.6-0.8-3.3-1.1-5-1.1c-1.9,0-3.7,0.4-5.4,1.1
					c-1.7,0.8-3.1,1.8-4.4,3s-2.3,2.7-3,4.4s-1.1,3.4-1.1,5.3v32.6h-11.3V72.6h11.3v28.3c1.2-1.2,2.5-2.2,4-3.2c1.3-0.7,3-1.4,5-2.1
					C808.8,94.8,811.1,94.5,813.6,94.5z"/>
				<path class="st8" d="M901.4,123.4c0,4.3-0.7,8.1-2.1,11.7s-3.3,6.6-5.8,9.1c-2.5,2.6-5.3,4.5-8.6,5.9c-3.3,1.4-6.8,2.1-10.5,2.1
					c-3.8,0-7.3-0.7-10.5-2.1c-3.3-1.4-6.1-3.4-8.6-5.9c-2.5-2.6-4.4-5.6-5.8-9.1c-1.4-3.5-2.1-7.4-2.1-11.7c0-4.3,0.7-8.1,2.1-11.6
					c1.4-3.5,3.3-6.6,5.8-9.1s5.3-4.5,8.6-6c3.3-1.4,6.8-2.1,10.5-2.1c3.8,0,7.3,0.7,10.5,2.1c3.3,1.4,6.1,3.4,8.6,6
					c2.5,2.6,4.4,5.6,5.8,9.1C900.7,115.2,901.4,119.1,901.4,123.4z M890.1,123.4c0-2.7-0.4-5.2-1.3-7.4c-0.9-2.2-2-4.1-3.5-5.8
					s-3.1-2.9-5-3.8c-1.9-0.9-3.9-1.3-5.9-1.3c-2,0-4,0.4-5.9,1.3c-1.9,0.9-3.6,2.1-5,3.8c-1.4,1.6-2.6,3.6-3.5,5.8
					c-0.9,2.2-1.3,4.7-1.3,7.3c0,2.7,0.4,5.2,1.3,7.4c0.9,2.2,2,4.1,3.5,5.8c1.4,1.6,3.1,2.9,5,3.8s3.9,1.3,5.9,1.3
					c2,0,4-0.4,5.9-1.3s3.6-2.1,5-3.8c1.4-1.6,2.6-3.6,3.5-5.8C889.7,128.5,890.1,126.1,890.1,123.4z"/>
				<path class="st8" d="M940.4,94.5c3.1,0,6,0.6,8.8,1.8c2.8,1.2,5.2,2.9,7.2,5c2,2.1,3.7,4.7,4.8,7.7c1.2,3,1.8,6.3,1.8,10v32.6
					h-11.3V119c0-1.8-0.4-3.6-1.1-5.3s-1.7-3.1-2.9-4.4c-1.2-1.3-2.6-2.3-4.2-3c-1.6-0.8-3.3-1.1-5-1.1c-1.9,0-3.7,0.4-5.4,1.1
					c-1.7,0.8-3.1,1.8-4.4,3c-1.2,1.3-2.2,2.7-2.9,4.4s-1.1,3.4-1.1,5.3v32.6h-11.3V95.1h8.2l2.5,5.7c1.1-1.2,2.4-2.2,3.9-3.2
					c1.3-0.7,3-1.4,5.1-2.1S937.5,94.5,940.4,94.5z"/>
				<path class="st8" d="M1027,95.1v54c0,3.4-0.6,6.6-1.8,9.5c-1.2,2.9-2.9,5.5-5.2,7.6c-2.2,2.1-4.9,3.8-8.1,5
					c-3.2,1.2-6.7,1.7-10.7,1.7c-3.4,0-6.5-0.5-9.3-1.4s-5.2-2.2-7.2-3.8c-2-1.6-3.7-3.5-5.1-5.6s-2.3-4.4-2.9-6.7h11.3
					c0.9,1.9,2.4,3.7,4.5,5.2c2,1.6,4.9,2.3,8.7,2.3c4.5,0,8-1.3,10.6-3.8c2.6-2.6,3.9-5.9,3.9-10v-5.6c-1.1,1.2-2.4,2.2-3.9,3.1
					c-1.3,0.8-3,1.5-4.9,2.2s-4.2,1-6.9,1c-3.4,0-6.7-0.7-9.9-2.1c-3.1-1.4-5.9-3.4-8.2-5.8c-2.4-2.5-4.2-5.4-5.6-8.7
					c-1.4-3.4-2.1-7-2.1-10.9c0-3.9,0.7-7.6,2.1-10.9c1.4-3.4,3.2-6.3,5.6-8.7c2.4-2.5,5.1-4.4,8.2-5.9c3.1-1.4,6.4-2.1,9.9-2.1
					c2.9,0,5.3,0.3,7.4,1c2,0.7,3.7,1.4,5,2.1c1.5,0.9,2.8,2,3.9,3.2l2.5-5.7H1027z M1001.4,139.1c2,0,3.9-0.4,5.8-1.3
					c1.9-0.9,3.5-2.1,5-3.6c1.4-1.6,2.6-3.4,3.5-5.4c0.9-2,1.3-4.2,1.3-6.6c0-2.3-0.4-4.5-1.3-6.6c-0.9-2.1-2-3.9-3.5-5.4
					s-3.1-2.8-5-3.6c-1.9-0.9-3.9-1.3-5.9-1.3c-2,0-4,0.4-5.9,1.3c-1.9,0.9-3.6,2.1-5,3.6c-1.4,1.6-2.6,3.4-3.5,5.4
					s-1.3,4.3-1.3,6.6c0,2.3,0.4,4.5,1.3,6.6c0.9,2,2.1,3.8,3.5,5.4c1.5,1.6,3.1,2.8,5,3.6C997.3,138.6,999.3,139.1,1001.4,139.1z"
					/>
			</g>
			<g>
				<path class="st8" d="M316.2,239.3c0,3.4-0.6,6.5-1.7,9.3c-1.1,2.8-2.6,5.3-4.5,7.4c-1.9,2.1-4.1,3.7-6.7,4.8
					c-2.6,1.2-5.3,1.7-8.3,1.7c-3,0-5.7-0.6-8.3-1.7c-2.6-1.2-4.8-2.8-6.7-4.8c-1.9-2.1-3.4-4.5-4.5-7.4c-1.1-2.8-1.6-5.9-1.6-9.3
					c0-3.4,0.5-6.5,1.6-9.3c1.1-2.8,2.6-5.3,4.5-7.3c1.9-2.1,4.1-3.7,6.7-4.9c2.6-1.2,5.4-1.7,8.3-1.7c3,0,5.7,0.6,8.3,1.7
					c2.6,1.2,4.8,2.8,6.7,4.9c1.9,2.1,3.4,4.5,4.5,7.3C315.6,232.8,316.2,235.9,316.2,239.3z M278.4,239.3c0,2.7,0.4,5.2,1.3,7.5
					c0.9,2.3,2.1,4.2,3.6,5.9c1.5,1.7,3.3,3,5.3,3.9c2,0.9,4.1,1.4,6.3,1.4s4.3-0.5,6.3-1.4c2-0.9,3.7-2.2,5.3-3.9
					c1.5-1.7,2.7-3.6,3.6-5.9c0.9-2.3,1.3-4.8,1.3-7.5c0-2.7-0.4-5.2-1.3-7.5c-0.9-2.3-2.1-4.2-3.6-5.9c-1.5-1.6-3.3-2.9-5.3-3.9
					c-2-0.9-4.1-1.4-6.3-1.4c-2.2,0-4.3,0.5-6.3,1.4c-2,0.9-3.8,2.2-5.3,3.9c-1.5,1.7-2.7,3.6-3.6,5.9
					C278.8,234.1,278.4,236.6,278.4,239.3z"/>
				<path class="st8" d="M347.1,216c2.6,0,5,0.5,7.2,1.4c2.2,0.9,4.2,2.2,5.8,3.9c1.6,1.7,2.9,3.7,3.8,6.1c0.9,2.4,1.4,5,1.4,7.8
					v26.9h-4.6v-26.9c0-2.1-0.4-4-1.1-5.7c-0.7-1.8-1.7-3.3-3-4.6c-1.3-1.3-2.8-2.3-4.4-3.1c-1.7-0.7-3.5-1.1-5.5-1.1
					c-2.1,0-4,0.4-5.7,1.1c-1.8,0.7-3.3,1.7-4.6,3.1c-1.3,1.3-2.3,2.8-3,4.6c-0.7,1.8-1.1,3.7-1.1,5.8v26.9h-4.7v-45.5h3.1l1.6,6.7
					h0.5c0.8-1.3,1.9-2.5,3.3-3.6c1.2-0.9,2.7-1.7,4.5-2.5C342.3,216.4,344.5,216,347.1,216z"/>
				<path class="st8" d="M383.9,262.1h-4.7v-65.2h4.7V262.1z"/>
				<path class="st8" d="M397.8,202c0-1,0.3-1.9,1-2.6c0.7-0.7,1.6-1,2.6-1s1.9,0.3,2.6,1c0.7,0.7,1,1.6,1,2.6s-0.3,1.9-1,2.6
					c-0.7,0.7-1.5,1-2.6,1s-1.9-0.3-2.6-1C398.1,204,397.8,203.1,397.8,202z M403.5,262.1h-4.6v-45.5h4.6V262.1z"/>
				<path class="st8" d="M438.6,216c2.6,0,5,0.5,7.2,1.4c2.2,0.9,4.2,2.2,5.8,3.9c1.6,1.7,2.9,3.7,3.8,6.1c0.9,2.4,1.4,5,1.4,7.8
					v26.9h-4.6v-26.9c0-2.1-0.4-4-1.1-5.7c-0.7-1.8-1.7-3.3-3-4.6c-1.3-1.3-2.8-2.3-4.4-3.1c-1.7-0.7-3.5-1.1-5.5-1.1
					c-2.1,0-4,0.4-5.7,1.1c-1.8,0.7-3.3,1.7-4.6,3.1c-1.3,1.3-2.3,2.8-3,4.6c-0.7,1.8-1.1,3.7-1.1,5.8v26.9H419v-45.5h3.1l1.6,6.7
					h0.5c0.8-1.3,1.9-2.5,3.3-3.6c1.2-0.9,2.7-1.7,4.5-2.5C433.8,216.4,436,216,438.6,216z"/>
				<path class="st8" d="M508,250.7c-0.6,1.4-1.5,2.9-2.6,4.3c-1.1,1.4-2.4,2.7-4,3.8c-1.6,1.1-3.3,2-5.3,2.7c-2,0.7-4.3,1-6.7,1
					c-3.1,0-6-0.6-8.6-1.7c-2.7-1.2-5-2.8-6.9-4.8c-1.9-2.1-3.5-4.5-4.5-7.4c-1.1-2.8-1.6-5.9-1.6-9.3c0-3.4,0.5-6.5,1.6-9.3
					c1.1-2.8,2.6-5.3,4.5-7.3c1.9-2.1,4.2-3.7,6.7-4.9c2.6-1.2,5.4-1.7,8.3-1.7c2.8,0,5.5,0.5,8,1.6c2.5,1.1,4.7,2.6,6.6,4.5
					c1.9,1.9,3.4,4.2,4.4,6.9c1.1,2.7,1.6,5.5,1.6,8.6c0,0.5,0,1-0.1,1.4c-0.1,0.4-0.1,0.8-0.2,1.1c-0.1,0.3-0.1,0.7-0.2,1h-36.7
					c0.3,2.5,0.9,4.8,1.8,6.8c0.9,2,2.2,3.8,3.6,5.2c1.5,1.4,3.2,2.6,5.2,3.4c2,0.8,4.1,1.2,6.5,1.2c1.7,0,3.2-0.2,4.5-0.7
					c1.4-0.5,2.6-1,3.7-1.8c1.1-0.7,2-1.5,2.8-2.4c0.8-0.9,1.4-1.7,1.9-2.4H508z M488.8,220.7c-2.1,0-4,0.4-5.8,1.2
					c-1.8,0.8-3.5,1.9-4.9,3.3c-1.4,1.4-2.7,3.1-3.7,5.1c-1,2-1.7,4.1-2.1,6.4h32.6c-0.3-2.4-0.9-4.5-1.8-6.5
					c-0.9-2-2.1-3.6-3.5-5.1c-1.4-1.4-3-2.5-4.9-3.3C492.8,221.1,490.9,220.7,488.8,220.7z"/>
				<path class="st8" d="M543.1,216.5h4.6v49.2c0,4.1-1.1,7.4-3.4,9.8c-2.3,2.4-5.1,3.6-8.5,3.6c-1.2,0-2.2-0.2-3-0.5
					c-0.4-0.1-0.8-0.3-1.2-0.6V274c0.3,0.1,0.6,0.2,0.9,0.3c0.7,0.1,1.4,0.2,2.3,0.2c2.6,0,4.7-0.7,6.1-2.2c1.4-1.5,2.2-3.7,2.2-6.6
					V216.5z M542.1,202c0-1,0.3-1.9,1-2.6c0.7-0.7,1.6-1,2.6-1c1,0,1.9,0.3,2.6,1c0.7,0.7,1,1.6,1,2.6s-0.3,1.9-1,2.6
					c-0.7,0.7-1.5,1-2.6,1c-1,0-1.9-0.3-2.6-1C542.4,204,542.1,203.1,542.1,202z"/>
				<path class="st8" d="M581.4,262.6c-2.6,0-5-0.5-7.2-1.4c-2.2-0.9-4.1-2.2-5.7-3.9c-1.6-1.7-2.8-3.7-3.8-6.1
					c-0.9-2.4-1.4-5-1.4-7.8v-26.9h4.7v26.9c0,2.1,0.4,4,1.1,5.7c0.7,1.8,1.7,3.3,3,4.6c1.3,1.3,2.7,2.3,4.4,3.1
					c1.7,0.7,3.5,1.1,5.4,1.1c2.1,0,4-0.4,5.7-1.1c1.8-0.7,3.3-1.7,4.6-3.1c1.3-1.3,2.3-2.8,3.1-4.6c0.7-1.8,1.1-3.7,1.1-5.8v-26.9
					h4.6v45.5h-3.1l-1.5-6.7h-0.6c-1,1.4-2.1,2.6-3.4,3.6c-1.2,1-2.7,1.8-4.4,2.5C586.2,262.2,584,262.6,581.4,262.6z"/>
				<path class="st8" d="M612.4,239.3c0-3.4,0.5-6.5,1.6-9.3c1.1-2.8,2.6-5.3,4.5-7.3c1.9-2.1,4.2-3.7,6.7-4.9
					c2.6-1.2,5.4-1.7,8.3-1.7c2.6,0,4.9,0.4,6.8,1.3c1.9,0.9,3.5,1.8,4.8,2.9c1.5,1.2,2.8,2.6,3.9,4.1h0.5v-27.4h4.6v65.2h-3.1
					l-1.6-7.8h-0.5c-1.1,1.5-2.4,2.9-3.9,4.1c-1.3,1-2.9,2-4.8,2.9c-1.9,0.9-4.1,1.3-6.8,1.3c-3,0-5.7-0.6-8.3-1.7
					c-2.6-1.2-4.8-2.8-6.7-4.8c-1.9-2.1-3.4-4.5-4.5-7.4C612.9,245.7,612.4,242.6,612.4,239.3z M633.6,220.7c-2.2,0-4.3,0.5-6.3,1.4
					c-2,0.9-3.8,2.2-5.3,3.9c-1.5,1.7-2.7,3.6-3.6,5.9c-0.9,2.3-1.3,4.8-1.3,7.4c0,2.7,0.4,5.2,1.3,7.5c0.9,2.3,2.1,4.2,3.6,5.9
					c1.5,1.7,3.3,3,5.3,3.9c2,0.9,4.1,1.4,6.3,1.4c2.2,0,4.3-0.5,6.3-1.4c2-0.9,3.7-2.2,5.3-3.9c1.5-1.7,2.7-3.6,3.6-5.9
					c0.9-2.3,1.3-4.8,1.3-7.5c0-2.7-0.4-5.2-1.3-7.5c-0.9-2.3-2.1-4.2-3.6-5.9c-1.5-1.6-3.3-2.9-5.3-3.9
					C637.9,221.1,635.8,220.7,633.6,220.7z"/>
				<path class="st8" d="M672.9,265.7c1,2.6,2.7,4.8,4.9,6.6c2.2,1.8,5.4,2.7,9.6,2.7c2.1,0,4-0.4,5.7-1.1c1.8-0.7,3.3-1.7,4.6-3.1
					c1.3-1.3,2.3-2.8,3.1-4.6c0.7-1.8,1.1-3.7,1.1-5.8v-8.3h-0.6c-1.1,1.5-2.4,2.9-3.8,4.1c-1.2,1-2.8,2-4.7,2.9
					c-1.9,0.9-4.1,1.3-6.4,1.3c-2.8,0-5.5-0.6-8-1.7c-2.5-1.1-4.7-2.7-6.6-4.7c-1.9-2-3.4-4.4-4.4-7.1c-1.1-2.7-1.6-5.6-1.6-8.7
					c0-3.1,0.5-6,1.6-8.7c1.1-2.7,2.6-5.1,4.4-7.1c1.9-2,4.1-3.6,6.6-4.7c2.5-1.1,5.2-1.7,8-1.7c2.4,0,4.6,0.4,6.5,1.3
					c1.9,0.9,3.5,1.8,4.7,2.9c1.5,1.2,2.7,2.6,3.8,4.1h0.6l1.5-7.7h3.1v43.9c0,2.7-0.5,5.2-1.4,7.6c-1,2.3-2.3,4.4-4,6.1
					c-1.7,1.7-3.8,3.1-6.1,4c-2.3,1-4.9,1.4-7.6,1.4c-2.8,0-5.3-0.4-7.5-1.1c-2.2-0.7-4.1-1.7-5.7-3s-3-2.8-4-4.4
					c-1.1-1.7-1.9-3.5-2.3-5.4H672.9z M670.3,238.3c0,2.5,0.4,4.8,1.3,6.9c0.9,2.1,2.1,4,3.6,5.6c1.5,1.6,3.2,2.8,5.1,3.7
					c1.9,0.9,3.9,1.3,6,1.3c2.1,0,4.1-0.4,6-1.3c1.9-0.9,3.6-2.1,5.1-3.7c1.5-1.6,2.7-3.4,3.6-5.6c0.9-2.1,1.3-4.5,1.3-6.9
					c0-2.5-0.4-4.8-1.3-6.9c-0.9-2.1-2.1-4-3.6-5.6c-1.5-1.6-3.2-2.8-5.1-3.7c-1.9-0.9-3.9-1.3-6-1.3s-4.1,0.4-6,1.3
					c-2,0.9-3.7,2.1-5.2,3.7c-1.5,1.6-2.7,3.4-3.6,5.6C670.7,233.5,670.3,235.8,670.3,238.3z"/>
				<path class="st8" d="M758.2,250.7c-0.6,1.4-1.5,2.9-2.6,4.3c-1.1,1.4-2.4,2.7-4,3.8c-1.6,1.1-3.3,2-5.3,2.7c-2,0.7-4.3,1-6.7,1
					c-3.1,0-6-0.6-8.6-1.7c-2.7-1.2-5-2.8-6.9-4.8c-1.9-2.1-3.5-4.5-4.5-7.4c-1.1-2.8-1.6-5.9-1.6-9.3c0-3.4,0.5-6.5,1.6-9.3
					c1.1-2.8,2.6-5.3,4.5-7.3c1.9-2.1,4.2-3.7,6.7-4.9c2.6-1.2,5.4-1.7,8.3-1.7c2.8,0,5.5,0.5,8,1.6c2.5,1.1,4.7,2.6,6.6,4.5
					s3.4,4.2,4.4,6.9c1.1,2.7,1.6,5.5,1.6,8.6c0,0.5,0,1-0.1,1.4c-0.1,0.4-0.1,0.8-0.2,1.1c-0.1,0.3-0.1,0.7-0.2,1h-36.7
					c0.3,2.5,0.9,4.8,1.8,6.8c0.9,2,2.2,3.8,3.6,5.2c1.5,1.4,3.2,2.6,5.2,3.4c2,0.8,4.1,1.2,6.5,1.2c1.7,0,3.2-0.2,4.5-0.7
					c1.4-0.5,2.6-1,3.7-1.8c1.1-0.7,2-1.5,2.8-2.4c0.8-0.9,1.4-1.7,1.9-2.4H758.2z M739.1,220.7c-2.1,0-4,0.4-5.8,1.2
					c-1.8,0.8-3.5,1.9-4.9,3.3s-2.7,3.1-3.7,5.1c-1,2-1.7,4.1-2.1,6.4h32.6c-0.3-2.4-0.9-4.5-1.8-6.5c-0.9-2-2.1-3.6-3.5-5.1
					c-1.4-1.4-3-2.5-4.9-3.3C743.1,221.1,741.1,220.7,739.1,220.7z"/>
			</g>
		</g>
	</g>
	<g>
		<g>
			<g>
				<path class="st9" d="M196.7,253.5c5.9,0,16.3,0.4,30.8,0.1c12.1-0.3,21.6,0.2,23.2,0.2c1.5,0,2.3,7.6,2.1,15.2
					c-0.2,9.4-0.4,17-2.4,17.3c-4.7,0.8-46.7,0.8-53,0.4c-3.6-0.3-2.8-4.5-2.5-19.2C195,260.8,195,253.5,196.7,253.5z"/>
				<path class="st10" d="M209.3,287c0,0-0.1-33.3,0.5-33.3l3.5,0l-0.6,33.3L209.3,287z"/>
				<path class="st10" d="M233.2,286.9c0,0,0-33.4,0.6-33.5c0.9-0.1,3.3,0,3.3,0l-0.5,33.4L233.2,286.9z"/>
			</g>
			<g>
				<path class="st11" d="M143.4,253.6c5.6,0,15.5-0.5,29.2-0.8c11.5-0.3,23.3,1.1,24.8,1.1c1.4,0,2.2,7.6,2,15.2
					c-0.2,9.4-0.4,17-2.3,17.3c-4.4,0.8-47.1,0.8-53.1,0.4c-3.4-0.3-2.7-4.5-2.3-19.2C141.9,260.9,141.9,253.6,143.4,253.6z"/>
				<g>
					<path class="st9" d="M154.6,253.3c-0.2,0-0.3,0-0.5,0c-2.5,11-4.7,22.3-6.5,33.6c0.1,0,0.3,0,0.4,0
						C149.9,275.6,152.1,264.3,154.6,253.3z"/>
					<path class="st9" d="M159.8,253.2c-0.1,0-0.3,0-0.4,0c-2.2,11.7-5.1,23.1-8.7,33.9c0.2,0,0.3,0,0.5,0
						C154.6,276.2,157.5,264.9,159.8,253.2z"/>
					<path class="st9" d="M161.3,266.5c1.1-4.4,2.1-8.9,3-13.5c-0.1,0-0.3,0-0.4,0c-0.9,4.5-1.9,8.9-3,13.2l-5,20.8
						c0.1,0,0.3,0,0.4,0L161.3,266.5z"/>
					<path class="st9" d="M150.9,253.4c-0.1,0-0.3,0-0.4,0c-2.2,11-4.1,22.2-5.7,33.4c0.1,0,0.3,0,0.4,0
						C146.8,275.7,148.8,264.5,150.9,253.4z"/>
					<path class="st9" d="M145,253.6c-1.1,5.6-2.3,11.3-3.4,17c0,0.9-0.1,1.8-0.1,2.6c1.3-6.5,2.6-13.1,3.9-19.6
						C145.3,253.6,145.2,253.6,145,253.6z"/>
					<path class="st9" d="M143.4,281.9c0.1-0.7,0.3-1.5,0.4-2.2c1.6-8.6,2.9-17.5,4.1-26.2c-0.1,0-0.3,0-0.4,0
						c-1.2,8.6-2.5,17.4-4.1,26c-0.1,0.7-0.3,1.5-0.4,2.2c-0.3,1.4-0.5,2.7-0.8,4.1c0.1,0.2,0.2,0.3,0.4,0.4
						C142.9,284.8,143.1,283.4,143.4,281.9z"/>
					<path class="st9" d="M168.2,252.9c-0.2,0-0.3,0-0.5,0c-3.1,11-5.5,22.4-7.2,34.2c0.1,0,0.3,0,0.4,0
						C162.7,275.4,165.1,263.9,168.2,252.9z"/>
					<path class="st9" d="M182.3,258.8c0.4-1.9,0.7-3.9,1-5.9c-0.1,0-0.3,0-0.4,0c-0.3,1.9-0.6,3.8-1,5.7l-5.2,28.5
						c0.1,0,0.3,0,0.4,0L182.3,258.8z"/>
					<path class="st9" d="M199.3,262.9c0-0.4,0-0.8-0.1-1.2c-2.7,8-5,16.4-6.7,25.1c0.2,0,0.3,0,0.4,0
						C194.6,278.5,196.8,270.6,199.3,262.9z"/>
					<path class="st9" d="M198.5,255.8c-0.1-0.3-0.2-0.5-0.2-0.8c-3.2,10.5-6.2,21.2-8.9,31.9c0.2,0,0.3,0,0.5,0
						C192.5,276.4,195.4,266,198.5,255.8z"/>
					<path class="st9" d="M169.6,269.4c1.4-5.4,2.9-10.9,4-16.6c-0.1,0-0.3,0-0.4,0c-1.2,5.6-2.6,11-4,16.3
						c-1.6,5.9-3.1,11.9-4.3,18c0.1,0,0.3,0,0.4,0C166.6,281.1,168.1,275.2,169.6,269.4z"/>
					<path class="st9" d="M199.2,276c0-0.5,0-1,0.1-1.5c-1.5,4-2.9,8-4.3,12.1c0.2,0,0.3,0,0.5,0C196.7,283.1,198,279.5,199.2,276z"
						/>
					<path class="st9" d="M171.7,287.1c1.5-10.5,4-20.8,6.4-30.8c0.3-1.2,0.6-2.4,0.8-3.5c-0.1,0-0.3,0-0.4,0
						c-0.3,1.1-0.5,2.2-0.8,3.3c-2.4,10.1-4.9,20.4-6.4,31C171.4,287.1,171.5,287.1,171.7,287.1z"/>
					<path class="st9" d="M189.5,269.5c0.3-1.2,0.5-2.4,0.8-3.6c0.9-4,1.8-8.1,2.5-12.4c-0.1,0-0.3,0-0.4,0
						c-0.7,4.1-1.5,8.2-2.4,12.2c-0.3,1.2-0.5,2.4-0.8,3.6c-1.3,5.8-2.4,11.7-3.3,17.7c0.1,0,0.3,0,0.4,0
						C187.2,281.1,188.3,275.2,189.5,269.5z"/>
					<path class="st9" d="M189,253.3c-0.1,0-0.3,0-0.4,0c-3,10.9-5.4,22.2-7.2,33.8c0.1,0,0.3,0,0.4,0
						C183.6,275.5,186,264.2,189,253.3z"/>
				</g>
				<path class="st10" d="M153.8,287.1c0,0,0.6-33.8,1.2-33.8l2.1-0.1l-0.8,33.9L153.8,287.1z"/>
				<path class="st10" d="M181.8,287c0,0,0.7-34.1,1.3-34.1c0.9-0.1,1.8,0.1,1.8,0.1l-0.8,34L181.8,287z"/>
			</g>
		</g>
		<g>
			<g>
				<path class="st9" d="M196.6,186.9c5.9,0,16.3,0.4,30.8,0.1c12.1-0.3,21.6,0.2,23.2,0.2c1.5,0,2.3,7.6,2.1,15.2
					c-0.2,9.4-0.4,17-2.4,17.3c-4.7,0.8-46.7,0.8-53,0.4c-3.6-0.3-2.8-4.5-2.5-19.2C195,194.2,195,186.9,196.6,186.9z"/>
				<path class="st10" d="M209.2,220.4c0,0-0.1-33.3,0.5-33.3l3.5,0l-0.6,33.3L209.2,220.4z"/>
				<path class="st10" d="M233.2,220.4c0,0,0-33.4,0.6-33.5c0.9-0.1,3.3,0,3.3,0l-0.5,33.4L233.2,220.4z"/>
			</g>
			<g>
				<path class="st11" d="M143.3,187c5.6,0,15.5-0.5,29.2-0.8c11.5-0.3,23.3,1.1,24.8,1.1c1.4,0,2.2,7.6,2,15.2
					c-0.2,9.4-0.4,17-2.3,17.3c-4.4,0.8-47.1,0.8-53.1,0.4c-3.4-0.3-2.7-4.5-2.3-19.2C141.8,194.3,141.8,187,143.3,187z"/>
				<g>
					<path class="st9" d="M154.5,186.8c-0.2,0-0.3,0-0.5,0c-2.5,11-4.7,22.3-6.5,33.6c0.1,0,0.3,0,0.4,0
						C149.8,209,152,197.8,154.5,186.8z"/>
					<path class="st9" d="M159.7,186.6c-0.1,0-0.3,0-0.4,0c-2.2,11.7-5.1,23.1-8.7,33.9c0.2,0,0.3,0,0.5,0
						C154.6,209.7,157.5,198.3,159.7,186.6z"/>
					<path class="st9" d="M161.2,199.9c1.1-4.4,2.1-8.9,3-13.5c-0.1,0-0.3,0-0.4,0c-0.9,4.5-1.9,8.9-3,13.2l-5,20.8
						c0.1,0,0.3,0,0.4,0L161.2,199.9z"/>
					<path class="st9" d="M150.9,186.9c-0.1,0-0.3,0-0.4,0c-2.2,11-4.1,22.2-5.7,33.4c0.1,0,0.3,0,0.4,0
						C146.8,209.1,148.7,197.9,150.9,186.9z"/>
					<path class="st9" d="M145,187c-1.1,5.6-2.3,11.3-3.4,17c0,0.9-0.1,1.8-0.1,2.6c1.3-6.5,2.6-13.1,3.9-19.6
						C145.3,187,145.1,187,145,187z"/>
					<path class="st9" d="M143.3,215.4c0.1-0.7,0.3-1.5,0.4-2.2c1.6-8.6,2.9-17.5,4.1-26.2c-0.1,0-0.3,0-0.4,0
						c-1.2,8.6-2.5,17.4-4.1,26c-0.1,0.7-0.3,1.5-0.4,2.2c-0.3,1.4-0.5,2.7-0.8,4.1c0.1,0.2,0.2,0.3,0.4,0.4
						C142.8,218.2,143.1,216.8,143.3,215.4z"/>
					<path class="st9" d="M168.2,186.3c-0.2,0-0.3,0-0.5,0c-3.1,11-5.5,22.4-7.2,34.2c0.1,0,0.3,0,0.4,0
						C162.6,208.8,165,197.3,168.2,186.3z"/>
					<path class="st9" d="M182.2,192.2c0.4-1.9,0.7-3.9,1-5.9c-0.1,0-0.3,0-0.4,0c-0.3,1.9-0.6,3.8-1,5.7l-5.2,28.5
						c0.1,0,0.3,0,0.4,0L182.2,192.2z"/>
					<path class="st9" d="M199.3,196.3c0-0.4,0-0.8-0.1-1.2c-2.7,8-5,16.4-6.7,25.1c0.2,0,0.3,0,0.4,0
						C194.6,211.9,196.7,204,199.3,196.3z"/>
					<path class="st9" d="M198.4,189.2c-0.1-0.3-0.2-0.5-0.2-0.8c-3.2,10.5-6.2,21.2-8.9,31.9c0.2,0,0.3,0,0.5,0
						C192.4,209.8,195.3,199.4,198.4,189.2z"/>
					<path class="st9" d="M169.6,202.8c1.4-5.4,2.9-10.9,4-16.6c-0.1,0-0.3,0-0.4,0c-1.2,5.6-2.6,11-4,16.3
						c-1.6,5.9-3.1,11.9-4.3,18c0.1,0,0.3,0,0.4,0C166.5,214.5,168,208.6,169.6,202.8z"/>
					<path class="st9" d="M199.2,209.5c0-0.5,0-1,0.1-1.5c-1.5,4-2.9,8-4.3,12.1c0.2,0,0.3,0,0.5,0
						C196.6,216.5,197.9,213,199.2,209.5z"/>
					<path class="st9" d="M171.6,220.5c1.5-10.5,4-20.8,6.4-30.8c0.3-1.2,0.6-2.4,0.8-3.5c-0.1,0-0.3,0-0.4,0
						c-0.3,1.1-0.5,2.2-0.8,3.3c-2.4,10.1-4.9,20.4-6.4,31C171.3,220.5,171.5,220.5,171.6,220.5z"/>
					<path class="st9" d="M189.4,202.9c0.3-1.2,0.5-2.4,0.8-3.6c0.9-4,1.8-8.1,2.5-12.4c-0.1,0-0.3,0-0.4,0
						c-0.7,4.1-1.5,8.2-2.4,12.2c-0.3,1.2-0.5,2.4-0.8,3.6c-1.3,5.8-2.4,11.7-3.3,17.7c0.1,0,0.3,0,0.4,0
						C187.1,214.5,188.2,208.6,189.4,202.9z"/>
					<path class="st9" d="M189,186.7c-0.1,0-0.3,0-0.4,0c-3,10.9-5.4,22.2-7.2,33.8c0.1,0,0.3,0,0.4,0
						C183.6,208.9,186,197.6,189,186.7z"/>
				</g>
				<path class="st10" d="M153.7,220.5c0,0,0.6-33.8,1.2-33.8l2.1-0.1l-0.8,33.9L153.7,220.5z"/>
				<path class="st10" d="M181.7,220.5c0,0,0.7-34.1,1.3-34.1c0.9-0.1,1.8,0.1,1.8,0.1l-0.8,34L181.7,220.5z"/>
			</g>
		</g>
		<g>
			<g>
				<path class="st9" d="M200.9,220.4c5.9,0,16.3,0.4,30.8,0.1c12.1-0.3,21.6,0.2,23.2,0.2c1.5,0,2.3,7.6,2.1,15.2
					c-0.2,9.4-0.4,17-2.4,17.3c-4.7,0.8-46.7,0.8-53,0.4c-3.6-0.3-2.8-4.5-2.5-19.2C199.3,227.7,199.3,220.4,200.9,220.4z"/>
				<path class="st10" d="M217.5,253.9c0,0-0.1-33.3,0.5-33.3l3.5,0l-0.6,33.3L217.5,253.9z"/>
				<path class="st10" d="M240.3,253.9c0,0,0-33.4,0.6-33.5c0.9-0.1,3.3,0,3.3,0l-0.5,33.4L240.3,253.9z"/>
			</g>
			<g>
				<path class="st11" d="M202.6,253.7c-5.9,0-16.3,0.5-30.8,0.8c-12.1,0.3-24.6-1.1-26.1-1.1c-1.5,0-2.3-7.6-2.1-15.2
					c0.2-9.4,0.4-17,2.4-17.3c4.7-0.8,49.7-0.8,55.9-0.4c3.6,0.3,2.8,4.5,2.5,19.2C204.2,246.4,204.2,253.7,202.6,253.7z"/>
				<g>
					<path class="st9" d="M190.7,243.1c-0.6,3.6-1.1,7.2-1.6,10.8c0.2,0,0.3,0,0.5,0c0.5-3.6,1.1-7.2,1.6-10.7l3.6-23.1
						c-0.1,0-0.3,0-0.5,0L190.7,243.1z"/>
					<path class="st9" d="M179.7,253.3c-0.1,0.3-0.1,0.6-0.2,1c0.2,0,0.3,0,0.5,0c0-0.3,0.1-0.5,0.1-0.8c1.7-10.8,3.4-21.9,4.4-33.3
						c-0.1,0-0.3,0-0.4,0C183.2,231.5,181.4,242.5,179.7,253.3z"/>
					<path class="st9" d="M186.7,254c0.2,0,0.3,0,0.5,0c1.9-10.9,3.4-22.2,4.5-33.9c-0.1,0-0.3,0-0.4,0
						C190.1,231.8,188.6,243.1,186.7,254z"/>
					<path class="st9" d="M185.3,240.3c-0.8,4.5-1.6,9.2-2.3,13.9c0.2,0,0.3,0,0.5,0c0.7-4.6,1.5-9.2,2.2-13.7
						c1.1-6.6,2.3-13.3,3.1-20.3c-0.2,0-0.3,0-0.5,0C187.5,227,186.4,233.7,185.3,240.3z"/>
					<path class="st9" d="M192.1,253.9c0.2,0,0.3,0,0.5,0c1.5-11.6,3.5-22.9,5.9-33.6c-0.2,0-0.3,0-0.5,0
						C195.5,231,193.6,242.3,192.1,253.9z"/>
					<path class="st9" d="M195.5,253.8c0.2,0,0.3,0,0.5,0c1.6-11,3-22.2,4.1-33.5c-0.1,0-0.3,0-0.4,0
						C198.5,231.6,197.1,242.8,195.5,253.8z"/>
					<path class="st9" d="M177,250.8c-0.1,1.2-0.3,2.3-0.4,3.5c0.1,0,0.3,0,0.5,0c0.1-1.1,0.3-2.3,0.4-3.4l3.7-30.8
						c-0.1,0-0.3,0-0.5,0L177,250.8z"/>
					<path class="st9" d="M143.5,240.1c1.6-5.5,2.9-11.2,3.9-17.1c0.1-0.7,0.3-1.6,0.5-2.4c-0.2,0-0.3,0-0.5,0
						c-0.2,0.7-0.3,1.5-0.4,2.2c-0.9,5.3-2,10.5-3.4,15.5C143.5,238.9,143.5,239.5,143.5,240.1z"/>
					<path class="st9" d="M198.3,253.7c1.4-11,2.6-22.1,3.7-33.3c0,0,0,0,0,0c-0.1,0-0.3,0-0.4,0c-1.1,11.2-2.3,22.4-3.7,33.4
						C198,253.7,198.1,253.7,198.3,253.7z"/>
					<path class="st9" d="M201.8,253.7c0.9-6.9,1.8-13.8,2.7-20.7c0.1-1.7,0.1-3.1,0.1-4.4c-1.1,8.4-2.2,16.8-3.3,25.2
						C201.6,253.7,201.7,253.7,201.8,253.7z"/>
					<path class="st9" d="M202.4,227.7c-0.1,0.7-0.2,1.5-0.3,2.2c-1,7.8-1.7,15.9-2.5,23.8c0.2,0,0.3,0,0.4,0
						c0.7-7.8,1.5-15.9,2.5-23.6c0.1-0.7,0.2-1.5,0.3-2.2c0.3-2.2,0.5-4.4,0.8-6.6c-0.1-0.1-0.3-0.3-0.4-0.4
						C203,223.1,202.7,225.4,202.4,227.7z"/>
					<path class="st9" d="M162.4,223.6c-3.1,9.9-6.1,20.1-8.7,30.3c0.2,0,0.3,0,0.5,0c2.6-10.1,5.5-20.3,8.6-30.1
						c0.4-1.3,0.9-2.6,1.5-3.7c-0.2,0-0.4,0-0.6,0C163.2,221.2,162.8,222.4,162.4,223.6z"/>
					<path class="st9" d="M155.5,228.2c-0.9,3-1.9,6.1-2.7,9.3c-1.6,6-2.5,11.3-2.8,16.2c0.1,0,0.3,0,0.4,0c0.3-4.8,1.2-10,2.8-16
						c0.8-3.1,1.8-6.2,2.7-9.2c0.8-2.7,1.6-5.4,2.4-8.2c-0.2,0-0.3,0-0.5,0C157.1,223,156.3,225.6,155.5,228.2z"/>
					<path class="st9" d="M145.2,244l-0.2,0.8c-0.3,1.6-0.7,3.1-1,4.7c0.1,0.5,0.1,0.9,0.2,1.3c0.3-1.9,0.8-3.8,1.2-5.7l0.2-0.8
						c1.7-7.8,3.1-15.7,4.3-23.7c-0.2,0-0.3,0-0.5,0C148.4,228.4,146.9,236.3,145.2,244z"/>
					<path class="st9" d="M158.8,254.2c0.2,0,0.3,0,0.5,0c1.8-11.5,4.1-22.9,6.8-34.1c-0.2,0-0.3,0-0.5,0
						C163,231.3,160.7,242.7,158.8,254.2z"/>
					<path class="st9" d="M146.6,253.4c0.1,0,0.3,0,0.5,0l6.5-33c-0.2,0-0.3,0-0.5,0L146.6,253.4z"/>
					<path class="st9" d="M161.1,254.3c0.2,0,0.3,0,0.5,0c2.4-9.5,5.7-24.1,7.9-34.2c-0.2,0-0.3,0-0.5,0
						C166.8,230.4,163.4,244.9,161.1,254.3z"/>
					<path class="st9" d="M166.3,254.5c0.2,0,0.3,0,0.5,0c2.2-11.3,4.3-22.8,6.3-34.3c-0.2,0-0.3,0-0.5,0
						C170.6,231.7,168.5,243.2,166.3,254.5z"/>
					<path class="st9" d="M172.9,254.4c0.2,0,0.3,0,0.5,0c1.9-11.1,3.5-22.6,4.6-34.3c-0.1,0-0.3,0-0.4,0
						C176.4,231.8,174.8,243.3,172.9,254.4z"/>
					<path class="st9" d="M172.3,240.2c-0.2,1.2-0.3,2.4-0.5,3.5c-0.5,3.5-1,7.1-1.4,10.7c0.1,0,0.3,0,0.4,0
						c0.4-3.6,0.9-7.1,1.4-10.6c0.2-1.2,0.3-2.4,0.5-3.6c0.9-6.6,1.7-13.4,2.4-20.2c-0.2,0-0.3,0-0.5,0
						C174,226.9,173.2,233.6,172.3,240.2z"/>
					<path class="st9" d="M164,254.4c0.2,0,0.3,0,0.5,0c2.7-10.8,4.8-22.2,6.3-34.3c-0.1,0-0.3,0-0.4,0
						C168.9,232.2,166.7,243.7,164,254.4z"/>
				</g>
				<polygon class="st10" points="190.6,253.9 191.1,220.2 188.8,220.1 188.4,254 				"/>
				<polygon class="st10" points="163.2,254.4 162.1,220.3 159.4,220.2 160.5,254.4 				"/>
			</g>
		</g>
	</g>
	<g>
		<path class="st12" d="M32.3,159.4c0,0-0.7-9.1,3.6-11.8c4.4-2.7,9,7,15.5,5c6.5-2,7.8-7,6-8.3c-1.8-1.3,0.7-2,1.5-0.6
			c0.9,1.4,0.3,11.6-8,11.5c-8.3-0.1-11.2-4.4-13-3.1c-1.8,1.3,0.7,7,0.7,7L32.3,159.4z"/>
		<g>
			<path class="st12" d="M30.8,160c-18.8,8.2-41.5,32.9-22.7,76.5C26,278,51,284.2,74.3,275.3c17.6-6.8,47.5-28.5,27.5-75.6
				C81.7,152.6,48.6,152.3,30.8,160z"/>
			<g>
				<path class="st11" d="M67.6,271.5c0.4,1.6,0.8,3.7,1.4,5.5c1.8-0.5,3.5-1.1,5.3-1.7c2.1-0.8,4.4-1.8,6.7-3.1c0,0,0-0.1,0-0.1
					c0.3-5.2-0.2-9.6-1.5-13.4c-1.9-5.5-5.4-10-8.8-14.4c-3.1-4-6.1-7.8-7.7-12.2c-1.4-3.9-1.7-8.3-2-12.8c-0.1-1.5-0.2-3.1-0.4-4.6
					c-0.8-8.7-3.3-14.6-7.8-18.6c-0.8-0.7-1.6-1.3-2.4-1.9c-1.4-1-2.6-1.9-3.3-3.1c-0.8-1.4-0.8-3.2-0.9-5.3c0-2.3-0.1-4.8-1.2-7.3
					c-1.2-2.8-3.5-4.7-5.4-6.4c-1.4-1.2-2.8-2.4-3.6-3.7c-0.8-1.3-1.1-3-1.5-4.8c-0.3-1.5-0.6-3-1.2-4.5c-0.9,0.3-1.8,0.7-2.7,1.1
					c-2,0.9-4,1.9-6,3.2c0.2,0.4,0.4,0.7,0.5,1.1c-0.1-0.3-0.3-0.5-0.4-0.8l-0.2-0.3c-2.7,1.6-5.3,3.6-7.9,5.9
					c0.1,0.7,0,1.5-0.1,2.4c-0.1,0.7-0.1,1.4-0.1,2.2c0,2.9,0.7,5.6,1.5,8.1c0.6,2.2,1.2,4.3,1.2,6.3c0,0.9-0.1,1.9-0.3,2.9
					c-0.2,1.7-0.5,3.7-0.2,5.7c0.3,2.1,1.2,3.9,2,5.6c0.6,1.3,1.2,2.6,1.4,3.8c0.1,0.8,0.2,1.8,0.2,2.8c0,2.4,0.1,5.3,2,7.7
					c0.5,0.7,1.1,1.2,1.7,1.7c0.3,0.3,0.9,0.8,0.9,0.9c0,0.2-0.2,0.9-0.4,1.3c-0.1,0.3-0.3,0.7-0.4,1c-1.4,4.2-0.6,8.8,2.4,14.2
					c0.5,0.8,1,1.7,1.4,2.5c1.5,2.6,3,5.1,3.5,7.7c0.2,0.9,0.3,1.9,0.3,3c0.1,1.2,0.2,2.5,0.5,3.8c0.8,3.8,2.8,7,4.6,9.8l1.2,1.9
					c-1.2-1.4-2.6-2.5-3.7-3.3c-3.6-2.8-5.6-5.4-6.5-8.1c-0.2-0.6-0.3-1.3-0.5-2c-0.4-1.7-0.8-3.6-2-5.4c-1.2-1.8-2.8-3-4.3-4
					c-0.7-0.5-1.3-0.9-1.9-1.4c-4-3.5-4.2-10.2-4-15c0-0.6,0.1-1.3,0.1-1.9c0.3-5.8,0.6-12.4-2.5-18c-0.1-0.2-0.2-0.4-0.4-0.6
					c-0.3-0.5-0.6-1.1-0.7-1.4c-0.1-0.5,0.2-1.4,0.5-2.3c0.4-1.2,0.9-2.5,0.9-4.1c0-1.8-0.6-3.4-1.1-4.7c-0.1-0.4-0.3-0.7-0.4-1.1
					c-1.3-4-0.4-8.6,0.7-13.4c0.5-2.2,1-4.4,1.3-6.7l0.1-1.2c-5.7,5.4-10.6,12.6-13.2,21.7c0.1,3.6,0.5,7.2,0.8,10.8l0.7,7.3
					c0.3,2.9,0.6,5.9,1.3,8.9c0.2,0.7,0.4,1.4,0.5,2.1c0.4,1.4,0.7,2.7,0.9,3.9c0.1,1,0.1,2,0.1,3c0,1,0,2,0.1,3.1
					c0.4,5.2,2.7,9.8,4.8,13.8c1.6,3.1,3.2,6.3,4.9,9.5c7.2,11.1,15.2,18.1,23.5,21.7c0.1-0.2,0.2-0.4,0.4-0.6
					c0.6-1,1.2-2.1,1.5-3.6c0.3-1.5,0.1-2.9-0.4-4.1l4.6,7.2c0.8,1.2,1.6,2.5,2.6,3.8c5.5,1,11,0.8,16.5-0.4c-0.3-0.1-0.6-0.2-1-0.3
					c-0.3-0.1-0.9-0.2-1-0.3c0,0-0.1-0.1-0.4-0.7c-0.5-1.2-0.8-2.5-1.1-4c-0.5-2.4-1-5.1-2.8-7.5c-2-2.7-4.9-4.2-7.5-5.5
					c-1.9-0.9-3.7-1.8-4.9-3.1c-2.2-2.3-2.8-6.3-1.9-11.8l0.1-0.7c0.6-3.4,1.4-7.6-0.8-11.1c-1.3-2.1-3.3-3.4-5-4.6
					c-1.6-1-2.9-1.9-3.3-3c-0.4-1.2,0.2-3,0.9-4.9c1-2.9,2.3-6.5,0.4-9.9c-1-1.8-2.5-2.9-3.8-3.8c-0.3-0.2-0.6-0.4-0.8-0.6
					c-3.9-3-5.7-8.4-4.4-13.1c0.1-0.3,0.1-0.5,0.2-0.8c0.6-2.2,1.5-5.2-0.3-7.9c-0.5-0.7-1-1.2-1.5-1.6c-0.2-0.2-0.5-0.4-0.5-0.5
					c-0.1-0.3,0.1-1.2,0.3-1.7c0.3-1.3,0.6-2.9,0.3-4.6c-0.3-1.2-0.8-2.1-1.2-2.8c-0.2-0.4-0.5-0.9-0.6-1.1c0-0.2,0.1-0.7,0.3-1
					c0.2-0.8,0.5-1.8,0.5-2.9c0-1.2-0.3-2.2-0.7-3.1c0.9,2,1.6,4,2,6.1c0.1,0.6,0.3,1.2,0.4,1.8c0.9,4.1,1.9,8.8,5.9,11.7
					c0.3,0.2,0.7,0.5,1.1,0.7c0.4,0.3,0.9,0.6,1,0.8c0.1,0.1,0.2,0.6,0.2,1.7c0,0.8,0,1.7-0.1,2.5c-0.2,4.1-0.4,8.7,2.8,12.3
					c1,1.2,2.2,2,3.2,2.7c0.8,0.5,1.5,1.1,2,1.6c1.7,1.9,1.6,5,1.5,8.6c-0.1,3.9-0.3,8.4,2.3,12.1c0.8,1.2,1.8,2.1,2.7,2.9
					c1,1,1.9,1.8,2.3,2.7c0.3,0.8,0.2,1.9,0,3.2c-0.1,1.2-0.3,2.6-0.1,4.1c0.4,3.2,2.3,5.7,3.9,7.9c1.2,1.6,2.3,3,2.7,4.6
					c0.1,0.3,0.1,0.6,0.2,1c0.2,0.8,0.3,1.8,0.8,2.7c0.5,1.1,1.2,2,1.9,2.8c0.1,0.2,0.3,0.3,0.4,0.5c2.1,2.6,3.2,5.9,4.3,9.4
					C67.2,269.6,67.4,270.5,67.6,271.5z"/>
				<path class="st11" d="M96.7,260c-0.2-0.5-0.3-1.1-0.6-1.6c-0.2-0.4-0.3-0.8-0.5-1.2c-0.5-1.1-1.3-2.8-1-3.4
					c0.1-0.1,0.3-0.4,0.4-0.6c0.4-0.5,1-1.2,1.4-2c1.4-2.9,0.3-5.6-0.5-7.6c-0.4-0.9-0.7-1.8-0.8-2.4c0-0.5,0.1-1.1,0.2-1.9
					c0.2-1.1,0.4-2.4,0.2-3.8c-0.3-2.4-1.7-4.1-2.8-5.6c-0.7-0.9-1.3-1.8-1.6-2.5c-0.2-0.7-0.3-1.6-0.3-2.5
					c-0.1-1.9-0.2-4.3-1.9-6.3c-1-1.3-2.4-2-3.4-2.6c-0.7-0.4-1.3-0.7-1.6-1c-0.4-0.4-0.6-1.4-0.8-2c-0.2-0.9-0.5-1.9-0.7-2.8
					c-1.4-5.7-2.9-12.2-8.5-15.9c-0.3-0.2-0.5-0.3-0.8-0.5c-0.6-0.4-1.5-0.9-1.9-1.3l0,0c0.1-0.5,0.4-1.3,0.3-2.2
					c-0.2-2.1-1.7-3.3-2.6-4l-0.2-0.2c-1.2-1-2-2.4-2.3-4c-0.1-0.5-0.1-1.1-0.2-1.8c-0.1-2-0.2-4.5-2.1-6.6c-1.1-1.3-2.6-2-3.8-2.5
					c-0.7-0.3-1.3-0.6-1.6-0.9c-0.5-0.5-0.7-1.8-0.8-3.1c-0.2-1.4-0.4-2.9-1-4.4c-1.4-3.3-4.5-5.1-6.8-6.4
					c-5.8-0.1-11.3,0.8-15.9,2.4c2.2,1.3,4.3,2.7,6.3,4.1c1,0.7,1.9,1.3,2.5,2c0.9,1.1,1.3,2.8,1.8,4.6c0.3,1.1,0.6,2.3,1,3.5
					c1,2.7,2.7,5.1,5,7c0.8,0.6,1.6,1.2,2.3,1.7c1.4,1,2.7,1.9,3.3,3c0.7,1.3,0.5,3.1,0.4,5.2c-0.2,2.4-0.4,5,0.6,7.6
					c1.6,4.1,5.4,6.1,8.7,7.8c2.5,1.3,4.8,2.5,5.8,4.4c1.1,2,0.7,4.7,0.2,7.7c-0.5,3.2-1.1,6.9,0.3,10.4c1.5,3.9,4.7,6.3,7.5,8.4
					l0.9,0.7c3.1,2.4,4.6,4.5,4.6,6.4c0,1.3-0.7,2.8-1.6,4.5c-1.1,2.2-2.4,4.7-2.3,7.7c0.1,3.4,2,6.1,3.6,8.4c1,1.5,2,2.8,2.3,4.1
					C90.8,265.8,93.9,263.1,96.7,260z"/>
				<path class="st11" d="M107.4,218.3c-0.6-1-1.2-2-2.1-3c-0.5-0.5-1-1-1.4-1.4c-0.4-0.4-0.8-0.8-1.1-1.2c-1.4-1.7-1.6-4.3-1.8-7.2
					c-0.2-2.4-0.4-4.8-1.2-7.2c-0.9-2.5-2.4-4.6-3.8-6.4l-18.7-25.2c-0.4-0.6-0.9-1.1-1.3-1.7c-8.2-5.7-16.6-8.2-24.5-8.6
					c1.1,0.9,2.3,1.7,3.4,2.5c2.1,1.4,4.1,2.8,5.4,4.5c0.9,1.2,1.5,2.8,2.2,4.5c0.9,2.2,1.9,4.7,3.8,6.8c0.9,1,1.9,1.7,2.7,2.4
					c0.8,0.6,1.6,1.2,2.1,1.8c0.6,0.7,1.1,1.6,1.7,2.6c0.9,1.5,1.9,3.3,3.5,4.7c0.9,0.8,2,1.4,2.9,1.9c0.9,0.5,1.7,1,2.2,1.5
					c0.5,0.6,0.8,1.5,1.1,2.6c0.3,0.9,0.6,2,1.2,3.1c1,1.9,2.4,3.3,3.7,4.5c1.2,1.1,2.3,2.2,2.7,3.3c0.6,1.4,0.3,3.3,0,5.5
					c-0.3,2.2-0.7,4.6-0.1,7c1,4.7,4.7,7.7,8,10.3c2.8,2.3,5.5,4.4,5.9,7.1c0.4,2.3-1.2,5.2-2.8,8.2c-2.4,4.4-5.4,9.9-2.5,15.3
					c0.1,0.3,0.3,0.5,0.5,0.7C106,248.1,110.5,235.3,107.4,218.3z"/>
			</g>
			<path class="st13" d="M107.9,236.2c-5.9,1.3-12,2.1-18,2.6c-19.5,1.7-39.5,1.1-57.1-5.6C22,229.1,12.3,222.6,5.3,214
				c-1.6-2-3-4.1-4.2-6.2c0.3,8.5,2.4,18.1,7,28.8C26,278,51,284.2,74.3,275.3C86.4,270.6,104.5,258.7,107.9,236.2z"/>
			<path class="st14" d="M63.3,164.9c10.1,3.5,18.6,10.5,23.6,19.3c1.1,1.9,2,4.5,0.4,6.3c-0.7,0.9-1.9,1.3-3,1.5
				c-3,0.5-5.9-0.7-8.1-2.4c-2.3-1.7-4.1-3.8-6.4-5.4c-6.1-4.4-14.5-5.1-22.5-5.1c-5.6,0-25.5,2.1-25-6.1c0.5-9.3,17.1-10.7,24-10.8
				C52.1,162.1,57.9,163,63.3,164.9z"/>
		</g>
	</g>
	<g>
		<g>
			<path class="st15" d="M62.2,247.9c0,0,1.1-11.5-12-10.3C50.2,237.6,49.2,247.9,62.2,247.9z"/>
			<g>
				<path class="st10" d="M62.4,250.5c-7.9-5.9-21.7,1.4-20.2,18.2c1.3,15.1,16.6,17.4,20.2,17.4c3.6,0,18.9-2.3,20.2-17.4
					C84,251.9,70.3,244.7,62.4,250.5z"/>
				<path class="st16" d="M61.9,254.5c0,0,4.2-5.4,9.9-3.1c5.7,2.3,5.5,7.3,3.3,7.6c-2.2,0.3-2.7-5.4-7.4-4.1
					c-4.7,1.3-5.1,2.4-6.1,1.8C60.6,256.2,61.9,254.5,61.9,254.5z"/>
				<path class="st17" d="M78.9,278.5c-8.6-2.4-16.7-6.2-23.3-12.2c-3.9-3.5-7.1-7.6-10-11.9c-2.5,3.4-4,8.3-3.4,14.4
					c1.3,15.1,16.6,17.4,20.2,17.4C65,286.2,73.8,285,78.9,278.5z"/>
			</g>
			<path class="st18" d="M64,242.5c0,0-2.7,5-2,12"/>
		</g>
		<g>
			<path class="st15" d="M97.6,263.2c0,0,1.1-11.5-12-10.3C85.6,252.8,84.6,263.1,97.6,263.2z"/>
			<g>
				<path class="st10" d="M97.8,265.8c-7.9-5.9-21.7,1.4-20.2,18.2c1.3,15.1,16.6,17.4,20.2,17.4c3.6,0,18.9-2.3,20.2-17.4
					C119.4,267.2,105.7,259.9,97.8,265.8z"/>
				<path class="st16" d="M97.3,269.8c0,0,4.2-5.4,9.9-3.1c5.7,2.3,5.5,7.3,3.3,7.6c-2.2,0.3-2.7-5.4-7.4-4.1
					c-4.7,1.3-5.1,2.4-6.1,1.8C96,271.5,97.3,269.8,97.3,269.8z"/>
				<path class="st17" d="M114.3,293.8c-8.6-2.4-16.7-6.2-23.3-12.2c-3.9-3.5-7.1-7.6-10-11.9c-2.5,3.4-4,8.3-3.4,14.4
					c1.3,15.1,16.6,17.4,20.2,17.4C100.4,301.4,109.2,300.2,114.3,293.8z"/>
			</g>
			<path class="st18" d="M99.4,257.8c0,0-2.7,5-2,12"/>
		</g>
		<g>
			<path class="st15" d="M38,265.3c0,0,1.1-11.5-12-10.3C26,255,25,265.3,38,265.3z"/>
			<g>
				<path class="st10" d="M38.1,267.9c-7.9-5.9-21.7,1.4-20.2,18.2c1.3,15.1,16.6,17.4,20.2,17.4s18.9-2.3,20.2-17.4
					C59.8,269.3,46,262.1,38.1,267.9z"/>
				<path class="st16" d="M37.7,271.9c0,0,4.2-5.4,9.9-3.1c5.7,2.3,5.5,7.3,3.3,7.6c-2.2,0.3-2.7-5.4-7.4-4.1
					c-4.7,1.3-5.1,2.4-6.1,1.8C36.4,273.6,37.7,271.9,37.7,271.9z"/>
				<path class="st17" d="M54.7,295.9c-8.6-2.4-16.7-6.2-23.3-12.2c-3.9-3.5-7.1-7.6-10-11.9c-2.5,3.4-4,8.3-3.4,14.4
					c1.3,15.1,16.6,17.4,20.2,17.4C40.8,303.6,49.6,302.4,54.7,295.9z"/>
			</g>
			<path class="st18" d="M39.7,259.9c0,0-2.7,5-2,12"/>
		</g>
		<g>
			<path class="st15" d="M72.5,275.2c0,0,1.1-11.5-12-10.3C60.4,264.9,59.5,275.2,72.5,275.2z"/>
			<g>
				<path class="st10" d="M72.6,277.9c-7.9-5.9-21.7,1.4-20.2,18.2c1.3,15.1,16.6,17.4,20.2,17.4s18.9-2.3,20.2-17.4
					C94.3,279.3,80.5,272,72.6,277.9z"/>
				<path class="st16" d="M72.2,281.9c0,0,4.2-5.4,9.9-3.1c5.7,2.3,5.5,7.3,3.3,7.6c-2.2,0.3-2.7-5.4-7.4-4.1
					c-4.7,1.3-5.1,2.4-6.1,1.8C70.8,283.6,72.2,281.9,72.2,281.9z"/>
				<path class="st17" d="M89.2,305.9c-8.6-2.4-16.7-6.2-23.3-12.2c-3.9-3.5-7.1-7.6-10-11.9c-2.5,3.4-4,8.3-3.4,14.4
					c1.3,15.1,16.6,17.4,20.2,17.4C75.3,313.5,84.1,312.3,89.2,305.9z"/>
			</g>
			<path class="st18" d="M74.2,269.9c0,0-2.7,5-2,12"/>
		</g>
		<g>
			<path class="st15" d="M126.5,269.7c0,0,1.1-11.5-12-10.3C114.5,259.4,113.5,269.7,126.5,269.7z"/>
			<g>
				<path class="st10" d="M126.7,272.4c-7.9-5.9-21.7,1.4-20.2,18.2c1.3,15.1,16.6,17.4,20.2,17.4c3.6,0,18.9-2.3,20.2-17.4
					C148.3,273.8,134.6,266.5,126.7,272.4z"/>
				<path class="st16" d="M126.2,276.3c0,0,4.2-5.4,9.9-3.1c5.7,2.3,5.5,7.3,3.3,7.6c-2.2,0.3-2.7-5.4-7.4-4.1
					c-4.7,1.3-5.1,2.4-6.1,1.8C124.9,278,126.2,276.3,126.2,276.3z"/>
				<path class="st17" d="M143.2,300.3c-8.6-2.4-16.7-6.2-23.3-12.2c-3.9-3.5-7.1-7.6-10-11.9c-2.5,3.4-4,8.3-3.4,14.4
					c1.3,15.1,16.6,17.4,20.2,17.4C129.3,308,138.1,306.8,143.2,300.3z"/>
			</g>
			<path class="st18" d="M128.3,264.4c0,0-2.7,5-2,12"/>
		</g>
	</g>
</g>
</svg>
